<mxfile host="app.diagrams.net" modified="2024-04-24T02:43:48.756Z" agent="Mozilla/5.0 (Windows NT 10.0; Win64; x64) AppleWebKit/537.36 (KHTML, like Gecko) Chrome/124.0.0.0 Safari/537.36" etag="ORdAq0iio5Wvnl3Tbnv4" version="24.2.8" type="device">
  <diagram name="페이지-1" id="90klD3gchOP1thm78RD0">
    <mxGraphModel dx="1434" dy="780" grid="1" gridSize="10" guides="1" tooltips="1" connect="1" arrows="1" fold="1" page="1" pageScale="1" pageWidth="827" pageHeight="1169" math="0" shadow="0">
      <root>
        <mxCell id="0" />
        <mxCell id="1" parent="0" />
        <mxCell id="4ImjgEeWH89rO8Tem_Fi-3" value="Entity" style="rounded=1;arcSize=10;whiteSpace=wrap;html=1;align=center;" vertex="1" parent="1">
          <mxGeometry x="160" y="120" width="100" height="40" as="geometry" />
        </mxCell>
        <mxCell id="4ImjgEeWH89rO8Tem_Fi-5" value="개체(Entity) : 세상의 사물이나 개념을 나타내는 것" style="text;html=1;align=center;verticalAlign=middle;resizable=0;points=[];autosize=1;strokeColor=none;fillColor=none;" vertex="1" parent="1">
          <mxGeometry x="269" y="125" width="290" height="30" as="geometry" />
        </mxCell>
        <mxCell id="4ImjgEeWH89rO8Tem_Fi-7" value="Attribute" style="ellipse;whiteSpace=wrap;html=1;align=center;" vertex="1" parent="1">
          <mxGeometry x="160" y="170" width="100" height="40" as="geometry" />
        </mxCell>
        <mxCell id="4ImjgEeWH89rO8Tem_Fi-8" value="속성(Attribute) : 개체가 자지고 있는 속성" style="text;html=1;align=center;verticalAlign=middle;resizable=0;points=[];autosize=1;strokeColor=none;fillColor=none;" vertex="1" parent="1">
          <mxGeometry x="269" y="180" width="240" height="30" as="geometry" />
        </mxCell>
        <mxCell id="4ImjgEeWH89rO8Tem_Fi-9" value="Relationship" style="shape=rhombus;perimeter=rhombusPerimeter;whiteSpace=wrap;html=1;align=center;" vertex="1" parent="1">
          <mxGeometry x="160" y="220" width="100" height="60" as="geometry" />
        </mxCell>
        <mxCell id="4ImjgEeWH89rO8Tem_Fi-10" value="관계(Relationship) : 개체와 개체 간의 관계" style="text;html=1;align=center;verticalAlign=middle;resizable=0;points=[];autosize=1;strokeColor=none;fillColor=none;" vertex="1" parent="1">
          <mxGeometry x="269" y="240" width="250" height="30" as="geometry" />
        </mxCell>
        <mxCell id="4ImjgEeWH89rO8Tem_Fi-11" value="ER 모델" style="text;html=1;align=center;verticalAlign=middle;resizable=0;points=[];autosize=1;strokeColor=none;fillColor=none;" vertex="1" parent="1">
          <mxGeometry x="150" y="40" width="70" height="30" as="geometry" />
        </mxCell>
        <mxCell id="4ImjgEeWH89rO8Tem_Fi-12" value="ER 다이어그램" style="text;html=1;align=center;verticalAlign=middle;resizable=0;points=[];autosize=1;strokeColor=none;fillColor=none;" vertex="1" parent="1">
          <mxGeometry x="150" y="320" width="100" height="30" as="geometry" />
        </mxCell>
        <mxCell id="4ImjgEeWH89rO8Tem_Fi-13" value="직원" style="whiteSpace=wrap;html=1;align=center;" vertex="1" parent="1">
          <mxGeometry x="160" y="410" width="100" height="40" as="geometry" />
        </mxCell>
        <mxCell id="4ImjgEeWH89rO8Tem_Fi-14" value="직원번호" style="ellipse;whiteSpace=wrap;html=1;align=center;" vertex="1" parent="1">
          <mxGeometry x="160" y="461" width="100" height="40" as="geometry" />
        </mxCell>
        <mxCell id="4ImjgEeWH89rO8Tem_Fi-16" value="직급" style="ellipse;whiteSpace=wrap;html=1;align=center;" vertex="1" parent="1">
          <mxGeometry x="10" y="410" width="100" height="40" as="geometry" />
        </mxCell>
        <mxCell id="4ImjgEeWH89rO8Tem_Fi-17" value="이름" style="ellipse;whiteSpace=wrap;html=1;align=center;" vertex="1" parent="1">
          <mxGeometry x="300" y="410" width="100" height="40" as="geometry" />
        </mxCell>
        <mxCell id="4ImjgEeWH89rO8Tem_Fi-18" value="전화번호" style="ellipse;whiteSpace=wrap;html=1;align=center;" vertex="1" parent="1">
          <mxGeometry x="160" y="361" width="100" height="40" as="geometry" />
        </mxCell>
        <mxCell id="4ImjgEeWH89rO8Tem_Fi-24" value="" style="endArrow=none;html=1;rounded=0;" edge="1" parent="1">
          <mxGeometry relative="1" as="geometry">
            <mxPoint x="110" y="430" as="sourcePoint" />
            <mxPoint x="170" y="430" as="targetPoint" />
            <Array as="points">
              <mxPoint x="130" y="430" />
            </Array>
          </mxGeometry>
        </mxCell>
        <mxCell id="4ImjgEeWH89rO8Tem_Fi-25" value="" style="endArrow=none;html=1;rounded=0;exitX=1;exitY=0.5;exitDx=0;exitDy=0;entryX=0;entryY=0.5;entryDx=0;entryDy=0;" edge="1" parent="1" source="4ImjgEeWH89rO8Tem_Fi-13" target="4ImjgEeWH89rO8Tem_Fi-17">
          <mxGeometry relative="1" as="geometry">
            <mxPoint x="330" y="300" as="sourcePoint" />
            <mxPoint x="400" y="300" as="targetPoint" />
            <Array as="points" />
          </mxGeometry>
        </mxCell>
        <mxCell id="4ImjgEeWH89rO8Tem_Fi-26" value="1" style="resizable=0;html=1;whiteSpace=wrap;align=right;verticalAlign=bottom;" connectable="0" vertex="1" parent="4ImjgEeWH89rO8Tem_Fi-25">
          <mxGeometry x="1" relative="1" as="geometry" />
        </mxCell>
        <mxCell id="4ImjgEeWH89rO8Tem_Fi-27" value="" style="endArrow=none;html=1;rounded=0;exitX=0.5;exitY=1;exitDx=0;exitDy=0;entryX=0.5;entryY=0;entryDx=0;entryDy=0;" edge="1" parent="1" source="4ImjgEeWH89rO8Tem_Fi-18" target="4ImjgEeWH89rO8Tem_Fi-13">
          <mxGeometry relative="1" as="geometry">
            <mxPoint x="330" y="300" as="sourcePoint" />
            <mxPoint x="490" y="300" as="targetPoint" />
          </mxGeometry>
        </mxCell>
        <mxCell id="4ImjgEeWH89rO8Tem_Fi-28" value="" style="endArrow=none;html=1;rounded=0;exitX=0.5;exitY=1;exitDx=0;exitDy=0;" edge="1" parent="1" source="4ImjgEeWH89rO8Tem_Fi-13">
          <mxGeometry relative="1" as="geometry">
            <mxPoint x="330" y="300" as="sourcePoint" />
            <mxPoint x="210" y="460" as="targetPoint" />
          </mxGeometry>
        </mxCell>
        <mxCell id="4ImjgEeWH89rO8Tem_Fi-29" value="소속" style="shape=rhombus;perimeter=rhombusPerimeter;whiteSpace=wrap;html=1;align=center;" vertex="1" parent="1">
          <mxGeometry x="380" y="480" width="100" height="60" as="geometry" />
        </mxCell>
        <mxCell id="4ImjgEeWH89rO8Tem_Fi-30" value="부서" style="whiteSpace=wrap;html=1;align=center;" vertex="1" parent="1">
          <mxGeometry x="610" y="410" width="100" height="40" as="geometry" />
        </mxCell>
        <mxCell id="4ImjgEeWH89rO8Tem_Fi-31" value="" style="endArrow=none;html=1;rounded=0;exitX=1;exitY=1;exitDx=0;exitDy=0;entryX=0;entryY=0.5;entryDx=0;entryDy=0;" edge="1" parent="1" source="4ImjgEeWH89rO8Tem_Fi-13" target="4ImjgEeWH89rO8Tem_Fi-29">
          <mxGeometry relative="1" as="geometry">
            <mxPoint x="330" y="300" as="sourcePoint" />
            <mxPoint x="490" y="300" as="targetPoint" />
          </mxGeometry>
        </mxCell>
        <mxCell id="4ImjgEeWH89rO8Tem_Fi-32" value="" style="endArrow=none;html=1;rounded=0;exitX=1;exitY=1;exitDx=0;exitDy=0;entryX=0;entryY=1;entryDx=0;entryDy=0;" edge="1" parent="1" target="4ImjgEeWH89rO8Tem_Fi-30">
          <mxGeometry relative="1" as="geometry">
            <mxPoint x="480" y="510" as="sourcePoint" />
            <mxPoint x="600" y="570" as="targetPoint" />
          </mxGeometry>
        </mxCell>
        <mxCell id="4ImjgEeWH89rO8Tem_Fi-33" value="부서명" style="ellipse;whiteSpace=wrap;html=1;align=center;" vertex="1" parent="1">
          <mxGeometry x="610" y="501" width="100" height="40" as="geometry" />
        </mxCell>
        <mxCell id="4ImjgEeWH89rO8Tem_Fi-34" value="부서번호" style="ellipse;whiteSpace=wrap;html=1;align=center;" vertex="1" parent="1">
          <mxGeometry x="610" y="321" width="100" height="40" as="geometry" />
        </mxCell>
        <mxCell id="4ImjgEeWH89rO8Tem_Fi-35" value="" style="endArrow=none;html=1;rounded=0;entryX=0.5;entryY=1;entryDx=0;entryDy=0;" edge="1" parent="1" source="4ImjgEeWH89rO8Tem_Fi-33" target="4ImjgEeWH89rO8Tem_Fi-30">
          <mxGeometry relative="1" as="geometry">
            <mxPoint x="490" y="520" as="sourcePoint" />
            <mxPoint x="620" y="460" as="targetPoint" />
          </mxGeometry>
        </mxCell>
        <mxCell id="4ImjgEeWH89rO8Tem_Fi-36" value="" style="endArrow=none;html=1;rounded=0;exitX=0.5;exitY=1;exitDx=0;exitDy=0;entryX=0.5;entryY=0;entryDx=0;entryDy=0;" edge="1" parent="1" source="4ImjgEeWH89rO8Tem_Fi-34" target="4ImjgEeWH89rO8Tem_Fi-30">
          <mxGeometry relative="1" as="geometry">
            <mxPoint x="490" y="520" as="sourcePoint" />
            <mxPoint x="620" y="460" as="targetPoint" />
          </mxGeometry>
        </mxCell>
      </root>
    </mxGraphModel>
  </diagram>
</mxfile>
